<?xml version="1.0" encoding="utf-8"?>
<!-- Generator: Adobe Illustrator 22.0.1, SVG Export Plug-In . SVG Version: 6.00 Build 0)  -->
<svg version="1.1" xmlns="http://www.w3.org/2000/svg" xmlns:xlink="http://www.w3.org/1999/xlink" x="0px" y="0px"
	 viewBox="0 0 400 150" style="enable-background:new 0 0 400 150;" xml:space="preserve">
<style type="text/css">
	.st0{fill:#FF3900;}
</style>
<g id="X_1_">
	<polygon class="st0" points="15,128.2 144,18.9 165.1,18.9 36.7,128.2 	"/>
	<path d="M93,62.1L80.3,46.7c0,0-4-5.2-12.7-5.2H45.1l29.7,36.1L93,62.1z"/>
	<path d="M91.5,97.3l12.6,15.4c0,0,4,5.2,12.7,5.2h22.6l-29.7-36.1L91.5,97.3z"/>
</g>
<g id="Causten_Extra_bold">
	<path d="M134.5,62.9h44v11.2h-15.8v43.2h-12.3V74.1h-15.8V62.9z"/>
	<g>
		<g>
			<path d="M215,99.3c1.2-0.2,2.4-0.6,3.5-1.1l0,0c0.2-0.1,0.3-0.1,0.4-0.2c2.9-1.3,5.2-3.3,7.1-6.1c2-2.9,2.9-6.5,2.9-10.7
				c0-5.8-1.7-10.3-5.2-13.5c-3.4-3.2-7.4-4.9-11.8-4.9h-26.4v54.5H198V99.6h1.8h0.9l8.2,11.7c4.6,5.1,8.7,6,13.1,6h7L215,99.3z
				 M198,87.7V74.8h12c1.8,0,3.4,0.6,4.7,1.7c1.3,1.1,2,2.7,2,4.7c0,2-0.7,3.6-2,4.7c-1.3,1.1-2.9,1.7-4.7,1.7H198z"/>
		</g>
	</g>
	<path d="M274.8,62.9v11.2h-25.1v10.4H273v11.2h-23.3v10.4h25.1v11.2h-37.4V62.9H274.8z"/>
	<path d="M295.6,62.9l15.2,30.3l15.3-30.3h12.4v54.5h-12.3V88l-11.1,23.2h-8.5L295.5,88v29.3h-12.3V62.9H295.6z"/>
	<path d="M384.7,62.9v11.2h-25.1v10.4H383v11.2h-23.3v10.4h25.1v11.2h-37.4V62.9H384.7z"/>
	<g id="Causten_Regular_Oblique_2_">
		<g>
			<path class="st0" d="M237.2,55.5L239,41h1.6l6.4,11.6l1.4-11.6h1.7l-1.8,14.5h-1.6l-6.4-11.6l-1.4,11.6H237.2z"/>
			<path class="st0" d="M262.1,42.6h-7.7l-0.6,4.9h7.2l-0.2,1.6h-7.2L253,54h7.7l-0.2,1.6h-9.4l1.8-14.5h9.4L262.1,42.6z"/>
			<path class="st0" d="M266.1,41l3.3,11.8l6.2-11.8h1.8l-7.7,14.5h-1.3L264.3,41H266.1z"/>
			<path class="st0" d="M288.5,42.6h-7.7l-0.6,4.9h7.2l-0.2,1.6H280l-0.6,4.9h7.7l-0.2,1.6h-9.4l1.8-14.5h9.4L288.5,42.6z"/>
			<path class="st0" d="M289.6,55.5l1.8-14.5h6.7c1.1,0,2,0.4,2.7,1.1c0.6,0.7,1,1.6,1,2.6c0,0.2,0,0.5,0,0.7
				c-0.1,1.2-0.6,2.2-1.4,3c-0.8,0.8-1.7,1.3-2.8,1.4l3.2,5.7h-2l-3.2-5.7H292l-0.7,5.7H289.6z M296.9,48.2c0.8,0,1.5-0.3,2-0.8
				c0.6-0.5,0.9-1.2,1-2c0-0.1,0-0.3,0-0.4c0-0.6-0.2-1.1-0.6-1.6c-0.4-0.5-1-0.7-1.8-0.7h-4.8l-0.7,5.6H296.9z"/>
			<path class="st0" d="M308.2,48.3c0.3-2.2,1.2-3.9,2.7-5.3c1.5-1.4,3.3-2.1,5.5-2.1c1.3,0,2.4,0.3,3.3,0.8
				c0.9,0.5,1.7,1.2,2.2,2.1l-1.5,1c-0.9-1.5-2.3-2.2-4.2-2.2c-1.6,0-3.1,0.5-4.2,1.6c-1.2,1.1-1.8,2.4-2.1,4.1
				c0,0.3-0.1,0.6-0.1,0.9c0,1.3,0.4,2.4,1.2,3.4c0.8,1,2.1,1.4,3.7,1.4c1.4,0,2.6-0.4,3.6-1.2c1-0.8,1.7-1.9,2-3.3h-5.1l0.2-1.6h7
				l-0.1,0.7c-0.3,2.1-1.2,3.8-2.6,5.1c-1.4,1.3-3.2,2-5.2,2c-2.1,0-3.7-0.6-4.8-1.9c-1.1-1.3-1.6-2.7-1.6-4.4
				C308.1,49.1,308.1,48.7,308.2,48.3z"/>
			<path class="st0" d="M325.7,55.5h-1.7l1.8-14.5h1.7L325.7,55.5z"/>
			<path class="st0" d="M331.4,41l3.3,11.8l6.2-11.8h1.8l-7.7,14.5h-1.3L329.6,41H331.4z"/>
			<path class="st0" d="M353.8,42.6h-7.7l-0.6,4.9h7.2l-0.2,1.6h-7.2l-0.6,4.9h7.7l-0.2,1.6h-9.4l1.8-14.5h9.4L353.8,42.6z"/>
			<path class="st0" d="M360,50.5l1.2-9.5h1.7l-1.1,9.3c0,0.2,0,0.5,0,0.7c0,0.9,0.3,1.6,0.8,2.2c0.5,0.6,1.4,0.9,2.5,0.9
				c1.1,0,2.1-0.3,2.9-1s1.2-1.6,1.4-2.7l1.1-9.3h1.7l-1.2,9.5c-0.2,1.5-0.8,2.8-1.9,3.7c-1.1,1-2.5,1.5-4.2,1.5s-2.9-0.4-3.7-1.3
				c-0.8-0.9-1.2-1.9-1.2-3.1C359.9,51,360,50.8,360,50.5z"/>
			<path class="st0" d="M374.8,41h6.5c1.1,0,2,0.4,2.7,1.1c0.6,0.7,1,1.6,1,2.6c0,0.2,0,0.5,0,0.7c-0.1,1.3-0.7,2.4-1.6,3.2
				c-0.9,0.8-1.9,1.2-3.1,1.2h-4.9l-0.7,5.7h-1.7L374.8,41z M375.6,48.2h4.6c0.8,0,1.4-0.3,2-0.8c0.6-0.5,0.9-1.2,1-2
				c0-0.1,0-0.3,0-0.4c0-0.6-0.2-1.1-0.6-1.6c-0.4-0.5-1-0.7-1.8-0.7h-4.6L375.6,48.2z"/>
		</g>
	</g>
</g>
</svg>
